<svg viewBox="0 0 60 59" xmlns="http://www.w3.org/2000/svg"><path d="m60 59-60-59h38.5l21.5 21.5z" fill="#ee3643"/><g fill="#fff"><path d="m31.52 18.33 3.68-3.68c.36-.36 1.45-1.45.58-2.33a1.17 1.17 0 0 0 -.84-.32 2 2 0 0 0 -1.12.39 4.81 4.81 0 0 0 -.57.49l-3.6 3.6-.78-.78 4.24-4.24c.44-.44.72-.75 1-1l.4-.43.67.67-.59.67a.1.1 0 0 0 0 .14.19.19 0 0 0 .11 0 2.13 2.13 0 0 1 .61-.09 2 2 0 0 1 1.42.61c.86.86.65 2-.6 3.27l-3.83 3.81z"/><path d="m37.12 23.58a4 4 0 0 1 -1.44-1 2.48 2.48 0 0 1 -.76-2.29 5.19 5.19 0 0 1 1.56-2.61 5.06 5.06 0 0 1 3.34-1.68 2.12 2.12 0 0 1 1.55.63c1.17 1.17.3 2.88-.91 4.09-.18.18-.32.32-.45.44l-2.64-2.64a.1.1 0 0 0 -.07 0 .1.1 0 0 0 -.07 0c-1.47 1.49-1.73 2.73-.78 3.69a2.94 2.94 0 0 0 1.1.72zm2.88-6.74a3.51 3.51 0 0 0 -2 1 .1.1 0 0 0 0 .07.1.1 0 0 0 0 .07l1.82 1.81a.1.1 0 0 0 .14 0 3 3 0 0 0 1.04-1.93 1 1 0 0 0 -.28-.74 1 1 0 0 0 -.72-.28z"/><path d="m42 28.8 2.11-3.43a22.79 22.79 0 0 1 1.42-2.06.1.1 0 0 0 0-.13.17.17 0 0 0 -.11 0c-.71.54-1.34 1-2.11 1.44l-3.42 2.05-.73-.67 4.29-7.06.81.81-2.26 3.31-.45.65c-.36.52-.71 1-1.08 1.5a.1.1 0 0 0 0 .13.26.26 0 0 0 .15.07c.73-.55 1.59-1.1 2.18-1.46l3.48-2.16.6.6-2.11 3.36c-.54.85-1 1.55-1.53 2.28a.1.1 0 0 0 0 .13.26.26 0 0 0 .15.07c.72-.57 1.47-1.08 2.18-1.56l3.43-2.24.78.78-7.11 4.25z"/></g></svg>